# xmcd
#
# Track frame offsets: 
#        150
#        17725
#        36062
#        51362
#        68100
#        83987
#        100562
#        117727
#        136590
#        153377
#        168925
#        186725
#        203640
#        219135
#        237350
#        255882
#        271387
#        288495
#
# Disc length: 4080 seconds
#
# Revision: 2
# Processed by: cddbd v1.5.2PL0 Copyright (c) Steve Scherf et al.
# Submitted via: ExactAudioCopy v1.0b3
#
DISCID=f90fee12
DTITLE=Avril Lavigne - Let Go
DYEAR=2004
DGENRE=Rock
TTITLE0=Losing Grip
TTITLE1=Complicated
TTITLE2=Sk8er Boi
TTITLE3=I'm with you
TTITLE4=Mobile
TTITLE5=Unwanted
TTITLE6=Tomorrow
TTITLE7=Anything But Ordinary
TTITLE8=Things I'll Never Say
TTITLE9=My World
TTITLE10=Nobody's Fool
TTITLE11=Too Much To Ask
TTITLE12=Naked
TTITLE13=Why
TTITLE14=Complicated -TV Track Version
TTITLE15=Sk8er Boi -TV Track Version
TTITLE16=I'm with you -TV Track Version
TTITLE17=Losing Grip -TV Track Version
EXTD=YEAR: 2004
EXTT0=
EXTT1=
EXTT2=
EXTT3=
EXTT4=
EXTT5=
EXTT6=
EXTT7=
EXTT8=
EXTT9=
EXTT10=
EXTT11=
EXTT12=
EXTT13=
EXTT14=
EXTT15=
EXTT16=
EXTT17=
PLAYORDER=
